<svg xmlns="http://www.w3.org/2000/svg" xmlns:xlink="http://www.w3.org/1999/xlink" width="200" zoomAndPan="magnify" viewBox="0 0 150 44.249999" height="59" preserveAspectRatio="xMidYMid meet" version="1.0"><defs><g/><clipPath id="89ec733b7a"><path d="M 136 13 L 148.75 13 L 148.75 29 L 136 29 Z M 136 13 " clip-rule="nonzero"/></clipPath><clipPath id="914f56d5d7"><path d="M 1.25 6.210938 L 32.226562 6.210938 L 32.226562 37.1875 L 1.25 37.1875 Z M 1.25 6.210938 " clip-rule="nonzero"/></clipPath></defs><g fill="#6875f5" fill-opacity="1"><g transform="translate(33.070873, 28.64531)"><g><path d="M 6.238281 -2.839844 L 4.597656 -2.839844 L 4.597656 -6.261719 L 6.238281 -6.261719 C 7.007812 -6.261719 8.859375 -6.238281 8.859375 -4.550781 C 8.859375 -2.839844 7.007812 -2.839844 6.238281 -2.839844 Z M 6.042969 -8.933594 L 4.597656 -8.933594 L 4.597656 -12.328125 L 6.042969 -12.328125 C 6.816406 -12.328125 8.378906 -12.257812 8.378906 -10.644531 C 8.378906 -8.933594 6.816406 -8.933594 6.042969 -8.933594 Z M 1.925781 -15.171875 C 1.734375 -15.171875 1.492188 -15.027344 1.492188 -14.738281 L 1.492188 -0.433594 C 1.492188 -0.144531 1.734375 0 1.925781 0 L 6.550781 0 C 11.945312 0 11.96875 -3.011719 11.96875 -4.117188 C 11.96875 -4.527344 11.96875 -7.078125 9.609375 -7.488281 C 11.269531 -7.96875 11.484375 -9.96875 11.484375 -11.050781 C 11.484375 -14.253906 8.859375 -15.171875 6.308594 -15.171875 Z M 1.925781 -15.171875 "/></g></g></g><g fill="#6875f5" fill-opacity="1"><g transform="translate(46.166324, 28.64531)"><g><path d="M 10.425781 0 C 10.714844 0 10.859375 -0.242188 10.859375 -0.433594 L 10.859375 -2.40625 C 10.859375 -2.601562 10.714844 -2.839844 10.425781 -2.839844 L 4.597656 -2.839844 L 4.597656 -14.738281 C 4.597656 -15.027344 4.359375 -15.171875 4.164062 -15.171875 L 1.925781 -15.171875 C 1.734375 -15.171875 1.492188 -15.027344 1.492188 -14.738281 L 1.492188 -0.433594 C 1.492188 -0.144531 1.734375 0 1.925781 0 Z M 10.425781 0 "/></g></g></g><g fill="#6875f5" fill-opacity="1"><g transform="translate(58.2748, 28.64531)"><g><path d="M 7.246094 0.191406 C 11.894531 0.191406 13.003906 -2.722656 13.003906 -5.296875 L 13.003906 -14.738281 C 13.003906 -15.027344 12.761719 -15.171875 12.570312 -15.171875 L 10.328125 -15.171875 C 10.136719 -15.171875 9.898438 -15.027344 9.898438 -14.738281 L 9.898438 -5.273438 C 9.898438 -2.890625 8.019531 -2.648438 7.246094 -2.648438 C 6.476562 -2.648438 4.597656 -2.890625 4.597656 -5.273438 L 4.597656 -14.738281 C 4.597656 -15.027344 4.359375 -15.171875 4.164062 -15.171875 L 1.925781 -15.171875 C 1.734375 -15.171875 1.492188 -15.027344 1.492188 -14.738281 L 1.492188 -5.296875 C 1.492188 -2.722656 2.601562 0.191406 7.246094 0.191406 Z M 7.246094 0.191406 "/></g></g></g><g fill="#6875f5" fill-opacity="1"><g transform="translate(72.766456, 28.64531)"><g><path d="M 4.597656 -2.839844 L 4.597656 -6.09375 L 9.320312 -6.09375 C 9.609375 -6.09375 9.753906 -6.332031 9.753906 -6.527344 L 9.753906 -8.5 C 9.753906 -8.691406 9.609375 -8.933594 9.320312 -8.933594 L 4.597656 -8.933594 L 4.597656 -12.328125 L 10.425781 -12.328125 C 10.714844 -12.328125 10.859375 -12.570312 10.859375 -12.761719 L 10.859375 -14.738281 C 10.859375 -14.929688 10.714844 -15.171875 10.425781 -15.171875 L 1.925781 -15.171875 C 1.734375 -15.171875 1.492188 -15.027344 1.492188 -14.738281 L 1.492188 -0.433594 C 1.492188 -0.144531 1.734375 0 1.925781 0 L 10.425781 0 C 10.714844 0 10.859375 -0.242188 10.859375 -0.433594 L 10.859375 -2.40625 C 10.859375 -2.601562 10.714844 -2.839844 10.425781 -2.839844 Z M 4.597656 -2.839844 "/></g></g></g><g fill="#6875f5" fill-opacity="1"><g transform="translate(85.115653, 28.64531)"><g><path d="M 9.199219 -12.257812 C 9.292969 -12.230469 9.582031 -12.160156 9.65625 -12.160156 C 9.824219 -12.160156 9.898438 -12.230469 9.96875 -12.351562 L 10.644531 -13.941406 C 10.667969 -14.015625 10.714844 -14.132812 10.714844 -14.230469 C 10.714844 -14.351562 10.691406 -14.472656 10.523438 -14.542969 C 9.148438 -15.171875 8.140625 -15.363281 6.40625 -15.363281 C 3.492188 -15.363281 1.132812 -14.0625 1.132812 -10.957031 C 1.132812 -5.875 9.054688 -7.054688 9.054688 -4.191406 C 9.054688 -3.46875 8.859375 -2.601562 6.550781 -2.601562 C 5.441406 -2.601562 4.019531 -2.9375 2.769531 -3.636719 C 2.671875 -3.683594 2.601562 -3.707031 2.527344 -3.707031 C 2.359375 -3.707031 2.289062 -3.613281 2.214844 -3.492188 L 1.300781 -1.828125 C 1.253906 -1.757812 1.226562 -1.6875 1.226562 -1.589844 C 1.226562 -1.46875 1.253906 -1.347656 1.421875 -1.226562 C 3.394531 0.144531 6.429688 0.191406 6.429688 0.191406 C 11.726562 0.191406 12.136719 -3.347656 12.136719 -4.214844 C 12.136719 -9.65625 4.214844 -8.476562 4.214844 -11.050781 C 4.214844 -12.28125 5.175781 -12.570312 6.695312 -12.570312 C 7.585938 -12.570312 8.453125 -12.425781 9.199219 -12.257812 Z M 9.199219 -12.257812 "/></g></g></g><g fill="#6875f5" fill-opacity="1"><g transform="translate(98.259246, 28.64531)"><g><path d="M 1.203125 -15.171875 C 0.914062 -15.171875 0.769531 -14.929688 0.769531 -14.738281 L 0.769531 -12.761719 C 0.769531 -12.570312 0.914062 -12.328125 1.203125 -12.328125 L 4.574219 -12.328125 L 4.574219 -0.433594 C 4.574219 -0.144531 4.816406 0 5.007812 0 L 7.246094 0 C 7.441406 0 7.679688 -0.144531 7.679688 -0.433594 L 7.679688 -12.328125 L 11.050781 -12.328125 C 11.339844 -12.328125 11.484375 -12.570312 11.484375 -12.761719 L 11.484375 -14.738281 C 11.484375 -14.929688 11.339844 -15.171875 11.050781 -15.171875 Z M 1.203125 -15.171875 "/></g></g></g><g fill="#6875f5" fill-opacity="1"><g transform="translate(110.512159, 28.64531)"><g><path d="M 4.597656 -2.839844 L 4.597656 -6.09375 L 9.320312 -6.09375 C 9.609375 -6.09375 9.753906 -6.332031 9.753906 -6.527344 L 9.753906 -8.5 C 9.753906 -8.691406 9.609375 -8.933594 9.320312 -8.933594 L 4.597656 -8.933594 L 4.597656 -12.328125 L 10.425781 -12.328125 C 10.714844 -12.328125 10.859375 -12.570312 10.859375 -12.761719 L 10.859375 -14.738281 C 10.859375 -14.929688 10.714844 -15.171875 10.425781 -15.171875 L 1.925781 -15.171875 C 1.734375 -15.171875 1.492188 -15.027344 1.492188 -14.738281 L 1.492188 -0.433594 C 1.492188 -0.144531 1.734375 0 1.925781 0 L 10.425781 0 C 10.714844 0 10.859375 -0.242188 10.859375 -0.433594 L 10.859375 -2.40625 C 10.859375 -2.601562 10.714844 -2.839844 10.425781 -2.839844 Z M 4.597656 -2.839844 "/></g></g></g><g fill="#6875f5" fill-opacity="1"><g transform="translate(122.861356, 28.64531)"><g><path d="M 1.371094 -5.296875 C 1.371094 -3.636719 2.09375 0.191406 7.246094 0.191406 C 8.402344 0.191406 9.898438 0 11.003906 -0.386719 C 11.195312 -0.457031 11.246094 -0.648438 11.246094 -0.722656 L 10.90625 -2.816406 C 10.835938 -3.011719 10.691406 -3.058594 10.570312 -3.058594 C 9.582031 -2.792969 8.570312 -2.648438 7.753906 -2.648438 C 6.261719 -2.648438 4.453125 -3.300781 4.453125 -5.585938 L 4.453125 -9.582031 C 4.453125 -11.871094 6.261719 -12.519531 7.753906 -12.519531 C 8.570312 -12.519531 9.582031 -12.375 10.570312 -12.113281 C 10.691406 -12.113281 10.835938 -12.160156 10.90625 -12.351562 L 11.246094 -14.449219 C 11.246094 -14.519531 11.195312 -14.710938 11.003906 -14.785156 C 9.898438 -15.171875 8.402344 -15.363281 7.246094 -15.363281 C 2.09375 -15.363281 1.371094 -11.535156 1.371094 -9.871094 Z M 1.371094 -5.296875 "/></g></g></g><g clip-path="url(#89ec733b7a)"><g fill="#6875f5" fill-opacity="1"><g transform="translate(135.475355, 28.64531)"><g><path d="M 12.738281 -14.738281 C 12.738281 -15.027344 12.496094 -15.171875 12.304688 -15.171875 L 10.066406 -15.171875 C 9.871094 -15.171875 9.632812 -15.027344 9.632812 -14.738281 L 9.632812 -8.113281 L 4.597656 -8.113281 L 4.597656 -14.738281 C 4.597656 -15.027344 4.359375 -15.171875 4.164062 -15.171875 L 1.925781 -15.171875 C 1.734375 -15.171875 1.492188 -15.027344 1.492188 -14.738281 L 1.492188 -0.433594 C 1.492188 -0.144531 1.734375 0 1.925781 0 L 4.164062 0 C 4.359375 0 4.597656 -0.144531 4.597656 -0.433594 L 4.597656 -5.273438 L 9.632812 -5.273438 L 9.632812 -0.433594 C 9.632812 -0.144531 9.871094 0 10.066406 0 L 12.304688 0 C 12.496094 0 12.738281 -0.144531 12.738281 -0.433594 Z M 12.738281 -14.738281 "/></g></g></g></g><path fill="#6875f5" d="M 28.542969 29.480469 C 28.453125 29.535156 18.199219 34.152344 8.703125 31.777344 C 7.050781 31.363281 5.605469 31.167969 4.421875 31.089844 C 5.007812 31.859375 5.664062 32.570312 6.382812 33.214844 C 6.875 33.253906 7.441406 33.320312 8.121094 33.429688 C 19.253906 35.214844 28.542969 29.480469 28.542969 29.480469 " fill-opacity="1" fill-rule="nonzero"/><g clip-path="url(#914f56d5d7)"><path fill="#6875f5" d="M 28.617188 15.292969 C 28.25 17.09375 26.148438 19.941406 18.503906 23.261719 C 19.011719 21.679688 20.386719 19.855469 21.179688 18.890625 C 23.335938 17.945312 25.570312 16.578125 27.203125 14.621094 C 27.734375 13.980469 28.785156 14.476562 28.617188 15.292969 Z M 16.742188 6.214844 C 8.1875 6.214844 1.253906 13.152344 1.253906 21.703125 C 1.253906 23.203125 1.46875 24.652344 1.867188 26.027344 C 2.707031 24.492188 4.003906 23.210938 5.636719 22.382812 C 6.730469 21.828125 7.964844 21.050781 9.308594 19.972656 C 12.644531 17.292969 14.179688 14.425781 14.878906 12.535156 C 15.195312 11.675781 16.253906 11.832031 16.613281 12.671875 C 17.066406 13.746094 16.722656 16.570312 14.679688 20.101562 C 14.292969 20.324219 13.882812 20.523438 13.453125 20.679688 C 11.523438 21.394531 9.960938 21.320312 9.007812 21.140625 C 8.574219 21.058594 8.375 21.535156 8.636719 21.890625 C 8.988281 22.375 10.402344 22.980469 12.609375 22.925781 C 12.609375 22.925781 10.042969 26.242188 6.816406 26.742188 C 6.421875 26.804688 6.371094 27.359375 6.75 27.492188 C 7.632812 27.800781 9.476562 27.601562 13.113281 24.867188 C 13.113281 24.867188 11.417969 26.796875 8.097656 29.183594 C 7.734375 29.445312 8.03125 30.019531 8.453125 29.867188 C 10.613281 29.101562 14.234375 26.007812 14.234375 26.007812 C 12.652344 27.851562 10.414062 29.359375 9.621094 29.984375 C 9.339844 30.203125 9.363281 30.648438 9.675781 30.8125 C 9.765625 30.859375 9.847656 30.855469 9.929688 30.824219 C 12.054688 30.039062 15.132812 27.128906 15.132812 27.128906 L 12.054688 30.496094 C 11.960938 30.832031 12.316406 31.132812 12.621094 30.96875 C 12.667969 30.945312 16.972656 27.949219 18.410156 23.554688 C 20.417969 23.070312 24.667969 21.890625 30.203125 19.5 C 31.066406 19.128906 31.757812 20.269531 31.03125 20.867188 C 27.359375 23.902344 17.972656 27.050781 17.972656 27.050781 C 22.949219 26.203125 28.027344 23.824219 29.992188 23.070312 C 30.683594 22.808594 31.453125 23.324219 31.410156 24.0625 C 31.398438 24.269531 31.300781 24.414062 31.160156 24.527344 C 27.488281 27.476562 19.011719 29.859375 19.011719 29.859375 L 28.308594 27.960938 C 29.007812 28.160156 29.164062 29.105469 28.542969 29.480469 C 28.542969 29.480469 19.253906 35.214844 8.121094 33.429688 C 7.441406 33.320312 6.875 33.253906 6.382812 33.214844 C 9.125 35.6875 12.757812 37.191406 16.742188 37.191406 C 25.296875 37.191406 32.230469 30.257812 32.230469 21.703125 C 32.230469 13.152344 25.296875 6.214844 16.742188 6.214844 " fill-opacity="1" fill-rule="nonzero"/></g></svg>